<?xml version="1.0" standalone="no"?>
<!DOCTYPE svg PUBLIC "-//W3C//DTD SVG 20010904//EN"
 "http://www.w3.org/TR/2001/REC-SVG-20010904/DTD/svg10.dtd">
<svg version="1.0" xmlns="http://www.w3.org/2000/svg"
 width="1920.000000pt" height="960.000000pt" viewBox="0 0 1920.000000 960.000000"
 preserveAspectRatio="xMidYMid meet">
<metadata>
Created by potrace 1.16, written by Peter Selinger 2001-2019
</metadata>
<g transform="translate(0.000000,960.000000) scale(0.100000,-0.100000)"
fill="#000000" stroke="none">
<path d="M5935 6468 c-170 -27 -310 -50 -311 -51 0 -1 -168 -706 -373 -1567
-205 -861 -374 -1575 -377 -1586 -5 -19 4 -26 78 -54 94 -37 257 -79 398 -105
146 -27 518 -32 652 -10 586 97 1039 540 1173 1145 25 115 31 400 11 525 -45
270 -162 471 -348 592 -205 133 -484 160 -733 69 -38 -14 -71 -24 -72 -22 -2
1 49 218 113 482 63 263 123 514 133 557 l18 77 -26 -1 c-14 -1 -165 -23 -336
-51z m459 -1562 c69 -34 105 -84 139 -191 32 -101 31 -332 -2 -455 -41 -154
-98 -267 -197 -391 -97 -122 -266 -226 -406 -249 -82 -14 -293 -9 -309 7 -13
13 -24 -37 146 668 139 581 125 542 219 591 67 35 165 54 267 51 70 -3 96 -8
143 -31z"/>
<path d="M8200 6465 c-121 -34 -230 -126 -288 -244 -36 -72 -37 -79 -37 -180
0 -99 2 -110 30 -160 65 -118 225 -186 381 -161 151 24 275 117 342 257 35 73
37 84 37 173 0 86 -3 101 -30 155 -34 67 -99 124 -175 151 -66 23 -193 27
-260 9z"/>
<path d="M15400 6466 c-169 -49 -295 -184 -330 -351 -32 -154 29 -289 160
-355 212 -107 479 -12 587 208 37 74 38 79 38 186 0 95 -3 117 -22 152 -30 57
-104 119 -172 145 -69 27 -196 34 -261 15z"/>
<path d="M9358 6056 c-180 -28 -329 -53 -331 -56 -3 -3 -69 -275 -147 -605
-349 -1476 -341 -1438 -342 -1650 -1 -245 65 -405 212 -516 110 -84 230 -123
426 -139 136 -11 348 1 465 25 96 21 282 74 293 86 11 10 -33 489 -45 489 -4
0 -49 -11 -101 -25 -132 -35 -286 -50 -377 -36 -144 23 -207 81 -226 211 -10
69 16 206 123 650 l97 405 362 3 361 2 64 263 64 262 -358 3 c-300 2 -358 5
-358 16 0 13 143 606 156 649 3 9 2 17 -3 16 -4 -1 -155 -24 -335 -53z"/>
<path d="M11430 5485 c-8 -2 -49 -9 -90 -15 -162 -26 -361 -107 -514 -208 -95
-63 -271 -239 -335 -335 -147 -220 -227 -458 -253 -748 -20 -232 15 -445 102
-624 85 -175 204 -291 390 -379 146 -69 231 -87 450 -93 250 -7 341 5 573 79
95 30 97 31 97 62 0 36 -41 480 -45 484 -1 1 -36 -8 -76 -22 -125 -41 -225
-58 -359 -59 -224 -1 -333 50 -405 193 -86 171 -83 475 9 702 78 192 224 331
412 392 136 44 343 37 514 -19 93 -31 116 -35 123 -24 4 8 55 120 112 249
l104 235 -60 28 c-81 37 -215 75 -329 92 -82 13 -371 19 -420 10z"/>
<path d="M13272 5476 c-231 -44 -425 -145 -608 -318 -215 -204 -364 -480 -436
-809 -30 -143 -33 -481 -4 -604 62 -266 210 -467 419 -570 138 -68 222 -87
413 -92 353 -11 587 71 857 301 156 133 315 385 392 620 67 205 79 286 80 531
0 195 -3 230 -22 308 -83 326 -288 539 -593 618 -109 28 -384 36 -498 15z
m327 -574 c94 -57 140 -173 148 -372 18 -442 -211 -846 -512 -901 -106 -19
-233 11 -288 69 -73 78 -102 190 -101 392 1 216 41 381 135 547 58 103 182
230 262 267 110 51 272 50 356 -2z"/>
<path d="M16690 5464 c-58 -7 -150 -23 -205 -35 -111 -23 -355 -95 -365 -106
-4 -5 -123 -492 -265 -1083 -142 -591 -260 -1081 -263 -1087 -3 -10 65 -13
321 -13 l325 0 51 213 c28 116 123 513 210 881 88 368 164 673 168 677 15 15
188 31 278 27 103 -6 154 -26 203 -82 41 -46 56 -102 55 -201 -1 -103 -8 -143
-104 -550 -137 -579 -220 -929 -225 -947 -5 -17 15 -18 320 -18 179 0 326 2
326 4 0 2 70 294 155 649 85 355 162 687 171 738 20 119 15 364 -10 454 -73
262 -245 416 -533 474 -84 18 -135 21 -305 20 -111 -1 -250 -7 -308 -15z"/>
<path d="M7805 5418 c-3 -7 -86 -357 -186 -778 -100 -421 -221 -929 -268
-1130 l-87 -365 319 -3 c176 -1 321 -1 322 0 4 5 545 2265 545 2277 0 17 -639
15 -645 -1z"/>
<path d="M14996 5413 c-3 -10 -55 -229 -116 -488 -61 -258 -181 -762 -266
-1119 -85 -357 -154 -652 -154 -657 0 -5 143 -9 319 -9 296 0 320 1 325 18 3
9 57 235 121 502 329 1376 415 1732 421 1753 5 16 -15 17 -320 17 -301 0 -325
-1 -330 -17z"/>
</g>
</svg>
